<svg id="Layer_1" data-name="Layer 1" xmlns="http://www.w3.org/2000/svg" viewBox="0 0 422.32 127"><defs><style>.cls-1{fill:#f4dc12;stroke:#f3dc11;}.cls-1,.cls-2,.cls-3,.cls-4{stroke-miterlimit:10;}.cls-2,.cls-4{fill:#fff;}.cls-2{stroke:#fff;}.cls-3{fill:none;}.cls-3,.cls-4{stroke:#f68522;stroke-width:2px;}</style></defs><title>Logo2</title><rect class="cls-1" x="148.66" y="1" width="75" height="125"/><rect class="cls-2" x="173.66" y="76" width="25" height="25"/><rect class="cls-2" x="173.66" y="26" width="25" height="25"/><rect class="cls-1" x="247.74" y="1" width="75" height="125"/><rect class="cls-2" x="272.74" y="76" width="25" height="25"/><rect class="cls-2" x="272.74" y="26" width="25" height="25"/><polygon class="cls-1" points="75.5 126 0.5 126 0.5 1 25.5 1 25.5 101 75.5 101 75.5 126"/><polygon class="cls-1" points="396.82 101 346.82 101 346.82 126 421.82 126 421.82 1 396.82 1 396.82 51 371.82 51 371.82 1 346.82 1 346.82 76 396.82 76 396.82 101"/><rect class="cls-1" x="99.58" y="1" width="25" height="25"/><rect class="cls-1" x="99.58" y="51" width="25" height="75"/><polygon class="cls-3" points="198.66 26 198.66 51 148.66 51 148.66 126 223.66 126 223.66 101 173.66 101 173.66 76 223.66 76 223.66 1 148.66 1 148.66 26 198.66 26"/><polygon class="cls-3" points="272.74 51 297.74 51 297.74 1 322.74 1 322.74 126 247.74 126 247.74 1 272.74 1 272.74 51"/><rect class="cls-4" x="272.74" y="76" width="25" height="25"/></svg>