<svg id="Layer_1" data-name="Layer 1" xmlns="http://www.w3.org/2000/svg" viewBox="0 0 422.32 126"><defs><style>.cls-1{fill:#f4dc12;stroke:#f3dc11;}.cls-1,.cls-2{stroke-miterlimit:10;}.cls-2{fill:#fff;stroke:#fff;}</style></defs><title>Logo1</title><rect class="cls-1" x="148.66" y="0.5" width="75" height="125"/><rect class="cls-2" x="173.66" y="75.5" width="25" height="25"/><rect class="cls-2" x="173.66" y="25.5" width="25" height="25"/><rect class="cls-1" x="247.74" y="0.5" width="75" height="125"/><rect class="cls-2" x="272.74" y="75.5" width="25" height="25"/><rect class="cls-2" x="272.74" y="25.5" width="25" height="25"/><polygon class="cls-1" points="75.5 125.5 0.5 125.5 0.5 0.5 25.5 0.5 25.5 100.5 75.5 100.5 75.5 125.5"/><polygon class="cls-1" points="396.82 100.5 346.82 100.5 346.82 125.5 421.82 125.5 421.82 0.5 396.82 0.5 396.82 50.5 371.82 50.5 371.82 0.5 346.82 0.5 346.82 75.5 396.82 75.5 396.82 100.5"/><rect class="cls-1" x="99.58" y="0.5" width="25" height="25"/><rect class="cls-1" x="99.58" y="50.5" width="25" height="75"/></svg>